<svg xmlns="http://www.w3.org/2000/svg" xmlns:xlink="http://www.w3.org/1999/xlink" width="2000" zoomAndPan="magnify" viewBox="0 0 1500 1499.999933" height="2000" preserveAspectRatio="xMidYMid meet" version="1.0"><defs><clipPath id="a5066061cb"><path d="M 1070.375 167.125 L 1332.875 167.125 L 1332.875 429.625 L 1070.375 429.625 Z M 1070.375 167.125 " clip-rule="nonzero"/></clipPath><clipPath id="ac4189bc0e"><path d="M 1201.625 167.125 C 1129.136719 167.125 1070.375 225.886719 1070.375 298.375 C 1070.375 370.863281 1129.136719 429.625 1201.625 429.625 C 1274.113281 429.625 1332.875 370.863281 1332.875 298.375 C 1332.875 225.886719 1274.113281 167.125 1201.625 167.125 Z M 1201.625 167.125 " clip-rule="nonzero"/></clipPath><clipPath id="22c5288e26"><path d="M 0.375 0.125 L 262.875 0.125 L 262.875 262.625 L 0.375 262.625 Z M 0.375 0.125 " clip-rule="nonzero"/></clipPath><clipPath id="0118c896ac"><path d="M 131.625 0.125 C 59.136719 0.125 0.375 58.886719 0.375 131.375 C 0.375 203.863281 59.136719 262.625 131.625 262.625 C 204.113281 262.625 262.875 203.863281 262.875 131.375 C 262.875 58.886719 204.113281 0.125 131.625 0.125 Z M 131.625 0.125 " clip-rule="nonzero"/></clipPath><clipPath id="f37637447d"><rect x="0" width="263" y="0" height="263"/></clipPath><clipPath id="350518e0a6"><path d="M 167.125 1070.375 L 429.625 1070.375 L 429.625 1332.875 L 167.125 1332.875 Z M 167.125 1070.375 " clip-rule="nonzero"/></clipPath><clipPath id="625463b665"><path d="M 298.375 1070.375 C 225.886719 1070.375 167.125 1129.136719 167.125 1201.625 C 167.125 1274.113281 225.886719 1332.875 298.375 1332.875 C 370.863281 1332.875 429.625 1274.113281 429.625 1201.625 C 429.625 1129.136719 370.863281 1070.375 298.375 1070.375 Z M 298.375 1070.375 " clip-rule="nonzero"/></clipPath><clipPath id="eb857f8a36"><path d="M 0.125 0.375 L 262.625 0.375 L 262.625 262.875 L 0.125 262.875 Z M 0.125 0.375 " clip-rule="nonzero"/></clipPath><clipPath id="0cffad9d16"><path d="M 131.375 0.375 C 58.886719 0.375 0.125 59.136719 0.125 131.625 C 0.125 204.113281 58.886719 262.875 131.375 262.875 C 203.863281 262.875 262.625 204.113281 262.625 131.625 C 262.625 59.136719 203.863281 0.375 131.375 0.375 Z M 131.375 0.375 " clip-rule="nonzero"/></clipPath><clipPath id="ac9f4be13d"><rect x="0" width="263" y="0" height="263"/></clipPath><clipPath id="a4eeca8e29"><path d="M 167.125 167.125 L 429.625 167.125 L 429.625 429.625 L 167.125 429.625 Z M 167.125 167.125 " clip-rule="nonzero"/></clipPath><clipPath id="5cafa7501b"><path d="M 298.375 167.125 C 225.886719 167.125 167.125 225.886719 167.125 298.375 C 167.125 370.863281 225.886719 429.625 298.375 429.625 C 370.863281 429.625 429.625 370.863281 429.625 298.375 C 429.625 225.886719 370.863281 167.125 298.375 167.125 Z M 298.375 167.125 " clip-rule="nonzero"/></clipPath><clipPath id="fd6cacdfea"><path d="M 0.125 0.125 L 262.625 0.125 L 262.625 262.625 L 0.125 262.625 Z M 0.125 0.125 " clip-rule="nonzero"/></clipPath><clipPath id="dff2d7ddfa"><path d="M 131.375 0.125 C 58.886719 0.125 0.125 58.886719 0.125 131.375 C 0.125 203.863281 58.886719 262.625 131.375 262.625 C 203.863281 262.625 262.625 203.863281 262.625 131.375 C 262.625 58.886719 203.863281 0.125 131.375 0.125 Z M 131.375 0.125 " clip-rule="nonzero"/></clipPath><clipPath id="d6990670e3"><rect x="0" width="263" y="0" height="263"/></clipPath><clipPath id="fa263813ec"><path d="M 1070.375 1070.375 L 1332.875 1070.375 L 1332.875 1332.875 L 1070.375 1332.875 Z M 1070.375 1070.375 " clip-rule="nonzero"/></clipPath><clipPath id="343ddc2532"><path d="M 1201.625 1070.375 C 1129.136719 1070.375 1070.375 1129.136719 1070.375 1201.625 C 1070.375 1274.113281 1129.136719 1332.875 1201.625 1332.875 C 1274.113281 1332.875 1332.875 1274.113281 1332.875 1201.625 C 1332.875 1129.136719 1274.113281 1070.375 1201.625 1070.375 Z M 1201.625 1070.375 " clip-rule="nonzero"/></clipPath><clipPath id="548b191d8d"><path d="M 0.375 0.375 L 262.875 0.375 L 262.875 262.875 L 0.375 262.875 Z M 0.375 0.375 " clip-rule="nonzero"/></clipPath><clipPath id="bc031288bf"><path d="M 131.625 0.375 C 59.136719 0.375 0.375 59.136719 0.375 131.625 C 0.375 204.113281 59.136719 262.875 131.625 262.875 C 204.113281 262.875 262.875 204.113281 262.875 131.625 C 262.875 59.136719 204.113281 0.375 131.625 0.375 Z M 131.625 0.375 " clip-rule="nonzero"/></clipPath><clipPath id="5214158803"><rect x="0" width="263" y="0" height="263"/></clipPath><clipPath id="0863738d6d"><path d="M 1235 453 L 1499 453 L 1499 716 L 1235 716 Z M 1235 453 " clip-rule="nonzero"/></clipPath><clipPath id="7769e06483"><path d="M 1318.890625 405.402344 L 1546.21875 536.652344 L 1414.96875 763.984375 L 1187.640625 632.734375 Z M 1318.890625 405.402344 " clip-rule="nonzero"/></clipPath><clipPath id="2f6faff1b2"><path d="M 1432.554688 471.027344 C 1369.777344 434.785156 1289.507812 456.292969 1253.265625 519.070312 C 1217.019531 581.84375 1238.527344 662.117188 1301.304688 698.359375 C 1364.082031 734.605469 1444.351562 713.09375 1480.59375 650.320312 C 1516.839844 587.542969 1495.332031 507.273438 1432.554688 471.027344 Z M 1432.554688 471.027344 " clip-rule="nonzero"/></clipPath><clipPath id="23a4308332"><path d="M 0 0 L 264 0 L 264 263 L 0 263 Z M 0 0 " clip-rule="nonzero"/></clipPath><clipPath id="95b3e14969"><path d="M 83.890625 -47.597656 L 311.21875 83.652344 L 179.96875 310.984375 L -47.359375 179.734375 Z M 83.890625 -47.597656 " clip-rule="nonzero"/></clipPath><clipPath id="a47b738abc"><path d="M 197.554688 18.027344 C 134.777344 -18.214844 54.507812 3.292969 18.265625 66.070312 C -17.980469 128.84375 3.527344 209.117188 66.304688 245.359375 C 129.082031 281.605469 209.351562 260.09375 245.59375 197.320312 C 281.839844 134.542969 260.332031 54.273438 197.554688 18.027344 Z M 197.554688 18.027344 " clip-rule="nonzero"/></clipPath><clipPath id="5219cca8cf"><rect x="0" width="264" y="0" height="263"/></clipPath><clipPath id="01551a6f0e"><path d="M 1 784 L 265 784 L 265 1047 L 1 1047 Z M 1 784 " clip-rule="nonzero"/></clipPath><clipPath id="a1a8456b69"><path d="M 85.027344 736.015625 L 312.359375 867.265625 L 181.109375 1094.597656 L -46.222656 963.347656 Z M 85.027344 736.015625 " clip-rule="nonzero"/></clipPath><clipPath id="eaabd6784e"><path d="M 198.695312 801.640625 C 135.917969 765.394531 55.648438 786.90625 19.402344 849.679688 C -16.839844 912.457031 4.667969 992.726562 67.445312 1028.972656 C 130.222656 1065.214844 210.492188 1043.707031 246.734375 980.929688 C 282.980469 918.15625 261.472656 837.882812 198.695312 801.640625 Z M 198.695312 801.640625 " clip-rule="nonzero"/></clipPath><clipPath id="de608f2eb4"><path d="M 0 0 L 264 0 L 264 263 L 0 263 Z M 0 0 " clip-rule="nonzero"/></clipPath><clipPath id="10141507b6"><path d="M 84.027344 -47.984375 L 311.359375 83.265625 L 180.109375 310.597656 L -47.222656 179.347656 Z M 84.027344 -47.984375 " clip-rule="nonzero"/></clipPath><clipPath id="99dd75d192"><path d="M 197.695312 17.640625 C 134.917969 -18.605469 54.648438 2.90625 18.402344 65.679688 C -17.839844 128.457031 3.667969 208.726562 66.445312 244.972656 C 129.222656 281.214844 209.492188 259.707031 245.734375 196.929688 C 281.980469 134.15625 260.472656 53.882812 197.695312 17.640625 Z M 197.695312 17.640625 " clip-rule="nonzero"/></clipPath><clipPath id="8b458f5861"><rect x="0" width="264" y="0" height="263"/></clipPath><clipPath id="a150859278"><path d="M 453 1 L 716 1 L 716 265 L 453 265 Z M 453 1 " clip-rule="nonzero"/></clipPath><clipPath id="a05e56892a"><path d="M 536.652344 -46.222656 L 763.984375 85.027344 L 632.734375 312.359375 L 405.402344 181.109375 Z M 536.652344 -46.222656 " clip-rule="nonzero"/></clipPath><clipPath id="efb2541fba"><path d="M 650.320312 19.402344 C 587.542969 -16.839844 507.273438 4.667969 471.027344 67.445312 C 434.785156 130.222656 456.292969 210.492188 519.070312 246.734375 C 581.84375 282.980469 662.117188 261.472656 698.359375 198.695312 C 734.605469 135.917969 713.09375 55.648438 650.320312 19.402344 Z M 650.320312 19.402344 " clip-rule="nonzero"/></clipPath><clipPath id="739f0d7bd2"><path d="M 0 0 L 263 0 L 263 264 L 0 264 Z M 0 0 " clip-rule="nonzero"/></clipPath><clipPath id="fc07d2ef7e"><path d="M 83.652344 -47.222656 L 310.984375 84.027344 L 179.734375 311.359375 L -47.597656 180.109375 Z M 83.652344 -47.222656 " clip-rule="nonzero"/></clipPath><clipPath id="b758ff6daf"><path d="M 197.320312 18.402344 C 134.542969 -17.839844 54.273438 3.667969 18.027344 66.445312 C -18.214844 129.222656 3.292969 209.492188 66.070312 245.734375 C 128.84375 281.980469 209.117188 260.472656 245.359375 197.695312 C 281.605469 134.917969 260.09375 54.648438 197.320312 18.402344 Z M 197.320312 18.402344 " clip-rule="nonzero"/></clipPath><clipPath id="e166a67801"><rect x="0" width="263" y="0" height="264"/></clipPath><clipPath id="20127e465b"><path d="M 784 1235 L 1047 1235 L 1047 1499 L 784 1499 Z M 784 1235 " clip-rule="nonzero"/></clipPath><clipPath id="21014b2d4c"><path d="M 867.265625 1187.640625 L 1094.597656 1318.890625 L 963.347656 1546.21875 L 736.015625 1414.96875 Z M 867.265625 1187.640625 " clip-rule="nonzero"/></clipPath><clipPath id="83bbf6d316"><path d="M 980.929688 1253.265625 C 918.15625 1217.019531 837.882812 1238.527344 801.640625 1301.304688 C 765.394531 1364.082031 786.90625 1444.351562 849.679688 1480.59375 C 912.457031 1516.839844 992.726562 1495.332031 1028.972656 1432.554688 C 1065.214844 1369.777344 1043.707031 1289.507812 980.929688 1253.265625 Z M 980.929688 1253.265625 " clip-rule="nonzero"/></clipPath><clipPath id="66ca16d172"><path d="M 0 0 L 263 0 L 263 264 L 0 264 Z M 0 0 " clip-rule="nonzero"/></clipPath><clipPath id="9406881a64"><path d="M 83.265625 -47.359375 L 310.597656 83.890625 L 179.347656 311.21875 L -47.984375 179.96875 Z M 83.265625 -47.359375 " clip-rule="nonzero"/></clipPath><clipPath id="cd6e71fc88"><path d="M 196.929688 18.265625 C 134.15625 -17.980469 53.882812 3.527344 17.640625 66.304688 C -18.605469 129.082031 2.90625 209.351562 65.679688 245.59375 C 128.457031 281.839844 208.726562 260.332031 244.972656 197.554688 C 281.214844 134.777344 259.707031 54.507812 196.929688 18.265625 Z M 196.929688 18.265625 " clip-rule="nonzero"/></clipPath><clipPath id="6ca2471ffb"><rect x="0" width="263" y="0" height="264"/></clipPath><clipPath id="e672e905e4"><path d="M 1235 784 L 1499 784 L 1499 1047 L 1235 1047 Z M 1235 784 " clip-rule="nonzero"/></clipPath><clipPath id="70d5412af8"><path d="M 1414.96875 736.015625 L 1546.21875 963.347656 L 1318.890625 1094.597656 L 1187.640625 867.265625 Z M 1414.96875 736.015625 " clip-rule="nonzero"/></clipPath><clipPath id="773fa40cf8"><path d="M 1480.59375 849.679688 C 1444.351562 786.90625 1364.082031 765.394531 1301.304688 801.640625 C 1238.527344 837.882812 1217.019531 918.15625 1253.265625 980.929688 C 1289.507812 1043.707031 1369.777344 1065.214844 1432.554688 1028.972656 C 1495.332031 992.726562 1516.839844 912.457031 1480.59375 849.679688 Z M 1480.59375 849.679688 " clip-rule="nonzero"/></clipPath><clipPath id="2d0ac42219"><path d="M 0 0 L 264 0 L 264 263 L 0 263 Z M 0 0 " clip-rule="nonzero"/></clipPath><clipPath id="35ba0f8f84"><path d="M 179.96875 -47.984375 L 311.21875 179.347656 L 83.890625 310.597656 L -47.359375 83.265625 Z M 179.96875 -47.984375 " clip-rule="nonzero"/></clipPath><clipPath id="bcbb235a7f"><path d="M 245.59375 65.679688 C 209.351562 2.90625 129.082031 -18.605469 66.304688 17.640625 C 3.527344 53.882812 -17.980469 134.15625 18.265625 196.929688 C 54.507812 259.707031 134.777344 281.214844 197.554688 244.972656 C 260.332031 208.726562 281.839844 128.457031 245.59375 65.679688 Z M 245.59375 65.679688 " clip-rule="nonzero"/></clipPath><clipPath id="c7d11f36ed"><rect x="0" width="264" y="0" height="263"/></clipPath><clipPath id="7825f10f70"><path d="M 1 453 L 265 453 L 265 716 L 1 716 Z M 1 453 " clip-rule="nonzero"/></clipPath><clipPath id="e76839ea80"><path d="M 181.109375 405.402344 L 312.359375 632.734375 L 85.027344 763.984375 L -46.222656 536.652344 Z M 181.109375 405.402344 " clip-rule="nonzero"/></clipPath><clipPath id="8f5c09273a"><path d="M 246.734375 519.070312 C 210.492188 456.292969 130.222656 434.785156 67.445312 471.027344 C 4.667969 507.273438 -16.839844 587.542969 19.402344 650.320312 C 55.648438 713.09375 135.917969 734.605469 198.695312 698.359375 C 261.472656 662.117188 282.980469 581.84375 246.734375 519.070312 Z M 246.734375 519.070312 " clip-rule="nonzero"/></clipPath><clipPath id="612f9544df"><path d="M 0 0 L 264 0 L 264 263 L 0 263 Z M 0 0 " clip-rule="nonzero"/></clipPath><clipPath id="97c78ff193"><path d="M 180.109375 -47.597656 L 311.359375 179.734375 L 84.027344 310.984375 L -47.222656 83.652344 Z M 180.109375 -47.597656 " clip-rule="nonzero"/></clipPath><clipPath id="8e7771ae0e"><path d="M 245.734375 66.070312 C 209.492188 3.292969 129.222656 -18.214844 66.445312 18.027344 C 3.667969 54.273438 -17.839844 134.542969 18.402344 197.320312 C 54.648438 260.09375 134.917969 281.605469 197.695312 245.359375 C 260.472656 209.117188 281.980469 128.84375 245.734375 66.070312 Z M 245.734375 66.070312 " clip-rule="nonzero"/></clipPath><clipPath id="8837af6eb7"><rect x="0" width="264" y="0" height="263"/></clipPath><clipPath id="6e0d2810fc"><path d="M 784 1 L 1047 1 L 1047 265 L 784 265 Z M 784 1 " clip-rule="nonzero"/></clipPath><clipPath id="8f005bca95"><path d="M 963.347656 -46.222656 L 1094.597656 181.109375 L 867.265625 312.359375 L 736.015625 85.027344 Z M 963.347656 -46.222656 " clip-rule="nonzero"/></clipPath><clipPath id="ed9561339b"><path d="M 1028.972656 67.445312 C 992.726562 4.667969 912.457031 -16.839844 849.679688 19.402344 C 786.90625 55.648438 765.394531 135.917969 801.640625 198.695312 C 837.882812 261.472656 918.15625 282.980469 980.929688 246.734375 C 1043.707031 210.492188 1065.214844 130.222656 1028.972656 67.445312 Z M 1028.972656 67.445312 " clip-rule="nonzero"/></clipPath><clipPath id="1a724c476a"><path d="M 0 0 L 263 0 L 263 264 L 0 264 Z M 0 0 " clip-rule="nonzero"/></clipPath><clipPath id="4440102ba3"><path d="M 179.347656 -47.222656 L 310.597656 180.109375 L 83.265625 311.359375 L -47.984375 84.027344 Z M 179.347656 -47.222656 " clip-rule="nonzero"/></clipPath><clipPath id="ecf9fda5d7"><path d="M 244.972656 66.445312 C 208.726562 3.667969 128.457031 -17.839844 65.679688 18.402344 C 2.90625 54.648438 -18.605469 134.917969 17.640625 197.695312 C 53.882812 260.472656 134.15625 281.980469 196.929688 245.734375 C 259.707031 209.492188 281.214844 129.222656 244.972656 66.445312 Z M 244.972656 66.445312 " clip-rule="nonzero"/></clipPath><clipPath id="011ed49c8c"><rect x="0" width="263" y="0" height="264"/></clipPath><clipPath id="4ec73fadd9"><path d="M 453 1235 L 716 1235 L 716 1499 L 453 1499 Z M 453 1235 " clip-rule="nonzero"/></clipPath><clipPath id="a496bdaafc"><path d="M 632.734375 1187.640625 L 763.984375 1414.96875 L 536.652344 1546.21875 L 405.402344 1318.890625 Z M 632.734375 1187.640625 " clip-rule="nonzero"/></clipPath><clipPath id="504b334e70"><path d="M 698.359375 1301.304688 C 662.117188 1238.527344 581.84375 1217.019531 519.070312 1253.265625 C 456.292969 1289.507812 434.785156 1369.777344 471.027344 1432.554688 C 507.273438 1495.332031 587.542969 1516.839844 650.320312 1480.59375 C 713.09375 1444.351562 734.605469 1364.082031 698.359375 1301.304688 Z M 698.359375 1301.304688 " clip-rule="nonzero"/></clipPath><clipPath id="2cc185f353"><path d="M 0 0 L 263 0 L 263 264 L 0 264 Z M 0 0 " clip-rule="nonzero"/></clipPath><clipPath id="2b543626ad"><path d="M 179.734375 -47.359375 L 310.984375 179.96875 L 83.652344 311.21875 L -47.597656 83.890625 Z M 179.734375 -47.359375 " clip-rule="nonzero"/></clipPath><clipPath id="f35f90a2ed"><path d="M 245.359375 66.304688 C 209.117188 3.527344 128.84375 -17.980469 66.070312 18.265625 C 3.292969 54.507812 -18.214844 134.777344 18.027344 197.554688 C 54.273438 260.332031 134.542969 281.839844 197.320312 245.59375 C 260.09375 209.351562 281.605469 129.082031 245.359375 66.304688 Z M 245.359375 66.304688 " clip-rule="nonzero"/></clipPath><clipPath id="cc7be3b18d"><rect x="0" width="263" y="0" height="264"/></clipPath></defs><g clip-path="url(#a5066061cb)"><g clip-path="url(#ac4189bc0e)"><g transform="matrix(1, 0, 0, 1, 1070, 167)"><g clip-path="url(#f37637447d)"><g clip-path="url(#22c5288e26)"><g clip-path="url(#0118c896ac)"><path fill="#fcca28" d="M 0.375 0.125 L 262.875 0.125 L 262.875 262.625 L 0.375 262.625 Z M 0.375 0.125 " fill-opacity="1" fill-rule="nonzero"/></g></g></g></g></g></g><g clip-path="url(#350518e0a6)"><g clip-path="url(#625463b665)"><g transform="matrix(1, 0, 0, 1, 167, 1070)"><g clip-path="url(#ac9f4be13d)"><g clip-path="url(#eb857f8a36)"><g clip-path="url(#0cffad9d16)"><path fill="#7c2e87" d="M 0.125 0.375 L 262.625 0.375 L 262.625 262.875 L 0.125 262.875 Z M 0.125 0.375 " fill-opacity="1" fill-rule="nonzero"/></g></g></g></g></g></g><g clip-path="url(#a4eeca8e29)"><g clip-path="url(#5cafa7501b)"><g transform="matrix(1, 0, 0, 1, 167, 167)"><g clip-path="url(#d6990670e3)"><g clip-path="url(#fd6cacdfea)"><g clip-path="url(#dff2d7ddfa)"><path fill="#37ba9b" d="M 0.125 0.125 L 262.625 0.125 L 262.625 262.625 L 0.125 262.625 Z M 0.125 0.125 " fill-opacity="1" fill-rule="nonzero"/></g></g></g></g></g></g><g clip-path="url(#fa263813ec)"><g clip-path="url(#343ddc2532)"><g transform="matrix(1, 0, 0, 1, 1070, 1070)"><g clip-path="url(#5214158803)"><g clip-path="url(#548b191d8d)"><g clip-path="url(#bc031288bf)"><path fill="#f59eaf" d="M 0.375 0.375 L 262.875 0.375 L 262.875 262.875 L 0.375 262.875 Z M 0.375 0.375 " fill-opacity="1" fill-rule="nonzero"/></g></g></g></g></g></g><g clip-path="url(#0863738d6d)"><g clip-path="url(#7769e06483)"><g clip-path="url(#2f6faff1b2)"><g transform="matrix(1, 0, 0, 1, 1235, 453)"><g clip-path="url(#5219cca8cf)"><g clip-path="url(#23a4308332)"><g clip-path="url(#95b3e14969)"><g clip-path="url(#a47b738abc)"><path fill="#08a953" d="M 83.890625 -47.597656 L 311.21875 83.652344 L 179.96875 310.984375 L -47.359375 179.734375 Z M 83.890625 -47.597656 " fill-opacity="1" fill-rule="nonzero"/></g></g></g></g></g></g></g></g><g clip-path="url(#01551a6f0e)"><g clip-path="url(#a1a8456b69)"><g clip-path="url(#eaabd6784e)"><g transform="matrix(1, 0, 0, 1, 1, 784)"><g clip-path="url(#8b458f5861)"><g clip-path="url(#de608f2eb4)"><g clip-path="url(#10141507b6)"><g clip-path="url(#99dd75d192)"><path fill="#7a0434" d="M 84.027344 -47.984375 L 311.359375 83.265625 L 180.109375 310.597656 L -47.222656 179.347656 Z M 84.027344 -47.984375 " fill-opacity="1" fill-rule="nonzero"/></g></g></g></g></g></g></g></g><g clip-path="url(#a150859278)"><g clip-path="url(#a05e56892a)"><g clip-path="url(#efb2541fba)"><g transform="matrix(1, 0, 0, 1, 453, 1)"><g clip-path="url(#e166a67801)"><g clip-path="url(#739f0d7bd2)"><g clip-path="url(#fc07d2ef7e)"><g clip-path="url(#b758ff6daf)"><path fill="#c0c2c2" d="M 83.652344 -47.222656 L 310.984375 84.027344 L 179.734375 311.359375 L -47.597656 180.109375 Z M 83.652344 -47.222656 " fill-opacity="1" fill-rule="nonzero"/></g></g></g></g></g></g></g></g><g clip-path="url(#20127e465b)"><g clip-path="url(#21014b2d4c)"><g clip-path="url(#83bbf6d316)"><g transform="matrix(1, 0, 0, 1, 784, 1235)"><g clip-path="url(#6ca2471ffb)"><g clip-path="url(#66ca16d172)"><g clip-path="url(#9406881a64)"><g clip-path="url(#cd6e71fc88)"><path fill="#ee1b3e" d="M 83.265625 -47.359375 L 310.597656 83.890625 L 179.347656 311.21875 L -47.984375 179.96875 Z M 83.265625 -47.359375 " fill-opacity="1" fill-rule="nonzero"/></g></g></g></g></g></g></g></g><g clip-path="url(#e672e905e4)"><g clip-path="url(#70d5412af8)"><g clip-path="url(#773fa40cf8)"><g transform="matrix(1, 0, 0, 1, 1235, 784)"><g clip-path="url(#c7d11f36ed)"><g clip-path="url(#2d0ac42219)"><g clip-path="url(#35ba0f8f84)"><g clip-path="url(#bcbb235a7f)"><path fill="#f5712a" d="M 179.96875 -47.984375 L 311.21875 179.347656 L 83.890625 310.597656 L -47.359375 83.265625 Z M 179.96875 -47.984375 " fill-opacity="1" fill-rule="nonzero"/></g></g></g></g></g></g></g></g><g clip-path="url(#7825f10f70)"><g clip-path="url(#e76839ea80)"><g clip-path="url(#8f5c09273a)"><g transform="matrix(1, 0, 0, 1, 1, 453)"><g clip-path="url(#8837af6eb7)"><g clip-path="url(#612f9544df)"><g clip-path="url(#97c78ff193)"><g clip-path="url(#8e7771ae0e)"><path fill="#f98f81" d="M 180.109375 -47.597656 L 311.359375 179.734375 L 84.027344 310.984375 L -47.222656 83.652344 Z M 180.109375 -47.597656 " fill-opacity="1" fill-rule="nonzero"/></g></g></g></g></g></g></g></g><g clip-path="url(#6e0d2810fc)"><g clip-path="url(#8f005bca95)"><g clip-path="url(#ed9561339b)"><g transform="matrix(1, 0, 0, 1, 784, 1)"><g clip-path="url(#011ed49c8c)"><g clip-path="url(#1a724c476a)"><g clip-path="url(#4440102ba3)"><g clip-path="url(#ecf9fda5d7)"><path fill="#de3373" d="M 179.347656 -47.222656 L 310.597656 180.109375 L 83.265625 311.359375 L -47.984375 84.027344 Z M 179.347656 -47.222656 " fill-opacity="1" fill-rule="nonzero"/></g></g></g></g></g></g></g></g><g clip-path="url(#4ec73fadd9)"><g clip-path="url(#a496bdaafc)"><g clip-path="url(#504b334e70)"><g transform="matrix(1, 0, 0, 1, 453, 1235)"><g clip-path="url(#cc7be3b18d)"><g clip-path="url(#2cc185f353)"><g clip-path="url(#2b543626ad)"><g clip-path="url(#f35f90a2ed)"><path fill="#1e76b8" d="M 179.734375 -47.359375 L 310.984375 179.96875 L 83.652344 311.21875 L -47.597656 83.890625 Z M 179.734375 -47.359375 " fill-opacity="1" fill-rule="nonzero"/></g></g></g></g></g></g></g></g></svg>